<mxfile host="app.diagrams.net" modified="2023-08-15T08:03:41.316Z" agent="Mozilla/5.0 (Windows NT 10.0; Win64; x64) AppleWebKit/537.36 (KHTML, like Gecko) Chrome/115.0.0.0 Safari/537.36" etag="UMh9jkk-AIHKPhHpxgd5" version="21.6.8" type="device" pages="10">
  <diagram name="Main Usecase" id="2YBvvXClWsGukQMizWep">
    <mxGraphModel dx="1050" dy="581" grid="1" gridSize="10" guides="1" tooltips="1" connect="1" arrows="1" fold="1" page="1" pageScale="1" pageWidth="850" pageHeight="1100" math="0" shadow="0">
      <root>
        <mxCell id="0" />
        <mxCell id="1" parent="0" />
        <mxCell id="LKUg-CwAF9THXCwxpRiV-2" value="XShop" style="swimlane;whiteSpace=wrap;html=1;fontSize=14;" parent="1" vertex="1">
          <mxGeometry x="20" y="110" width="810" height="650" as="geometry" />
        </mxCell>
        <mxCell id="LKUg-CwAF9THXCwxpRiV-1" value="Admin" style="shape=umlActor;verticalLabelPosition=bottom;verticalAlign=top;html=1;outlineConnect=0;fillStyle=auto;strokeWidth=2;fontSize=14;" parent="LKUg-CwAF9THXCwxpRiV-2" vertex="1">
          <mxGeometry x="70" y="280" width="50" height="100" as="geometry" />
        </mxCell>
        <mxCell id="LKUg-CwAF9THXCwxpRiV-3" value="Quản lý Tài khoản" style="ellipse;whiteSpace=wrap;html=1;fontSize=14;" parent="LKUg-CwAF9THXCwxpRiV-2" vertex="1">
          <mxGeometry x="30" y="40" width="130" height="60" as="geometry" />
        </mxCell>
        <mxCell id="LKUg-CwAF9THXCwxpRiV-7" value="Quản lý Thương hiệu" style="ellipse;whiteSpace=wrap;html=1;fontSize=14;" parent="LKUg-CwAF9THXCwxpRiV-2" vertex="1">
          <mxGeometry x="210" y="40" width="130" height="60" as="geometry" />
        </mxCell>
        <mxCell id="LKUg-CwAF9THXCwxpRiV-8" value="Quản lý Danh mục sản phẩm" style="ellipse;whiteSpace=wrap;html=1;fontSize=14;" parent="LKUg-CwAF9THXCwxpRiV-2" vertex="1">
          <mxGeometry x="235" y="130" width="130" height="60" as="geometry" />
        </mxCell>
        <mxCell id="LKUg-CwAF9THXCwxpRiV-9" value="Quản lý&amp;nbsp; Sản phẩm" style="ellipse;whiteSpace=wrap;html=1;fontSize=14;" parent="LKUg-CwAF9THXCwxpRiV-2" vertex="1">
          <mxGeometry x="230" y="230" width="130" height="60" as="geometry" />
        </mxCell>
        <mxCell id="LKUg-CwAF9THXCwxpRiV-11" value="Quản lý Bài viết" style="ellipse;whiteSpace=wrap;html=1;fontSize=14;" parent="LKUg-CwAF9THXCwxpRiV-2" vertex="1">
          <mxGeometry x="217.5" y="370" width="125" height="60" as="geometry" />
        </mxCell>
        <mxCell id="LKUg-CwAF9THXCwxpRiV-12" value="Quản lý Danh mục bài viết" style="ellipse;whiteSpace=wrap;html=1;fontSize=14;" parent="LKUg-CwAF9THXCwxpRiV-2" vertex="1">
          <mxGeometry x="225" y="480" width="140" height="60" as="geometry" />
        </mxCell>
        <mxCell id="LKUg-CwAF9THXCwxpRiV-13" value="Quản lý đơn hàng" style="ellipse;whiteSpace=wrap;html=1;fontSize=14;" parent="LKUg-CwAF9THXCwxpRiV-2" vertex="1">
          <mxGeometry x="180" y="570" width="130" height="60" as="geometry" />
        </mxCell>
        <mxCell id="LKUg-CwAF9THXCwxpRiV-14" value="Đăng nhập" style="ellipse;whiteSpace=wrap;html=1;fontSize=14;" parent="LKUg-CwAF9THXCwxpRiV-2" vertex="1">
          <mxGeometry x="342.5" y="302.5" width="125" height="55" as="geometry" />
        </mxCell>
        <mxCell id="LKUg-CwAF9THXCwxpRiV-15" value="Quản lý đánh giá" style="ellipse;whiteSpace=wrap;html=1;fontSize=14;" parent="LKUg-CwAF9THXCwxpRiV-2" vertex="1">
          <mxGeometry x="30" y="570" width="130" height="60" as="geometry" />
        </mxCell>
        <mxCell id="LKUg-CwAF9THXCwxpRiV-16" value="Tim kiếm sản phẩm" style="ellipse;whiteSpace=wrap;html=1;fontSize=14;" parent="LKUg-CwAF9THXCwxpRiV-2" vertex="1">
          <mxGeometry x="510" y="40" width="140" height="60" as="geometry" />
        </mxCell>
        <mxCell id="LKUg-CwAF9THXCwxpRiV-17" value="Xem sản phẩm" style="ellipse;whiteSpace=wrap;html=1;fontSize=14;" parent="LKUg-CwAF9THXCwxpRiV-2" vertex="1">
          <mxGeometry x="455" y="130" width="130" height="60" as="geometry" />
        </mxCell>
        <mxCell id="LKUg-CwAF9THXCwxpRiV-18" value="Quản lý giỏ hàng" style="ellipse;whiteSpace=wrap;html=1;fontSize=14;" parent="LKUg-CwAF9THXCwxpRiV-2" vertex="1">
          <mxGeometry x="520" y="570" width="130" height="60" as="geometry" />
        </mxCell>
        <mxCell id="LKUg-CwAF9THXCwxpRiV-19" value="Đặt hàng và thanh toán" style="ellipse;whiteSpace=wrap;html=1;fontSize=14;" parent="LKUg-CwAF9THXCwxpRiV-2" vertex="1">
          <mxGeometry x="450" y="230" width="140" height="60" as="geometry" />
        </mxCell>
        <mxCell id="LKUg-CwAF9THXCwxpRiV-20" value="Đọc bài viết" style="ellipse;whiteSpace=wrap;html=1;fontSize=14;" parent="LKUg-CwAF9THXCwxpRiV-2" vertex="1">
          <mxGeometry x="445" y="370" width="140" height="60" as="geometry" />
        </mxCell>
        <mxCell id="LKUg-CwAF9THXCwxpRiV-21" value="Đánh giá sản phẩm" style="ellipse;whiteSpace=wrap;html=1;fontSize=14;" parent="LKUg-CwAF9THXCwxpRiV-2" vertex="1">
          <mxGeometry x="440" y="480" width="140" height="60" as="geometry" />
        </mxCell>
        <mxCell id="LKUg-CwAF9THXCwxpRiV-22" value="Admin" style="shape=umlActor;verticalLabelPosition=bottom;verticalAlign=top;html=1;outlineConnect=0;fillStyle=auto;strokeWidth=2;fontSize=14;" parent="LKUg-CwAF9THXCwxpRiV-2" vertex="1">
          <mxGeometry x="700" y="280" width="50" height="100" as="geometry" />
        </mxCell>
        <mxCell id="LKUg-CwAF9THXCwxpRiV-23" value="" style="endArrow=none;html=1;rounded=0;" parent="LKUg-CwAF9THXCwxpRiV-2" source="LKUg-CwAF9THXCwxpRiV-1" target="LKUg-CwAF9THXCwxpRiV-9" edge="1">
          <mxGeometry width="50" height="50" relative="1" as="geometry">
            <mxPoint x="400" y="260" as="sourcePoint" />
            <mxPoint x="450" y="210" as="targetPoint" />
          </mxGeometry>
        </mxCell>
        <mxCell id="LKUg-CwAF9THXCwxpRiV-24" value="" style="endArrow=none;html=1;rounded=0;" parent="LKUg-CwAF9THXCwxpRiV-2" source="LKUg-CwAF9THXCwxpRiV-1" target="LKUg-CwAF9THXCwxpRiV-11" edge="1">
          <mxGeometry width="50" height="50" relative="1" as="geometry">
            <mxPoint x="400" y="260" as="sourcePoint" />
            <mxPoint x="450" y="210" as="targetPoint" />
          </mxGeometry>
        </mxCell>
        <mxCell id="LKUg-CwAF9THXCwxpRiV-25" value="" style="endArrow=none;html=1;rounded=0;" parent="LKUg-CwAF9THXCwxpRiV-2" source="LKUg-CwAF9THXCwxpRiV-1" target="LKUg-CwAF9THXCwxpRiV-3" edge="1">
          <mxGeometry width="50" height="50" relative="1" as="geometry">
            <mxPoint x="400" y="360" as="sourcePoint" />
            <mxPoint x="450" y="310" as="targetPoint" />
          </mxGeometry>
        </mxCell>
        <mxCell id="LKUg-CwAF9THXCwxpRiV-26" value="" style="endArrow=none;html=1;rounded=0;" parent="LKUg-CwAF9THXCwxpRiV-2" source="LKUg-CwAF9THXCwxpRiV-1" target="LKUg-CwAF9THXCwxpRiV-15" edge="1">
          <mxGeometry width="50" height="50" relative="1" as="geometry">
            <mxPoint x="400" y="360" as="sourcePoint" />
            <mxPoint x="450" y="310" as="targetPoint" />
          </mxGeometry>
        </mxCell>
        <mxCell id="LKUg-CwAF9THXCwxpRiV-27" value="" style="endArrow=none;html=1;rounded=0;" parent="LKUg-CwAF9THXCwxpRiV-2" source="LKUg-CwAF9THXCwxpRiV-1" target="LKUg-CwAF9THXCwxpRiV-7" edge="1">
          <mxGeometry width="50" height="50" relative="1" as="geometry">
            <mxPoint x="400" y="360" as="sourcePoint" />
            <mxPoint x="450" y="310" as="targetPoint" />
          </mxGeometry>
        </mxCell>
        <mxCell id="LKUg-CwAF9THXCwxpRiV-28" value="" style="endArrow=none;html=1;rounded=0;" parent="LKUg-CwAF9THXCwxpRiV-2" source="LKUg-CwAF9THXCwxpRiV-1" target="LKUg-CwAF9THXCwxpRiV-14" edge="1">
          <mxGeometry width="50" height="50" relative="1" as="geometry">
            <mxPoint x="400" y="360" as="sourcePoint" />
            <mxPoint x="450" y="310" as="targetPoint" />
          </mxGeometry>
        </mxCell>
        <mxCell id="LKUg-CwAF9THXCwxpRiV-29" value="" style="endArrow=none;html=1;rounded=0;" parent="LKUg-CwAF9THXCwxpRiV-2" source="LKUg-CwAF9THXCwxpRiV-1" target="LKUg-CwAF9THXCwxpRiV-12" edge="1">
          <mxGeometry width="50" height="50" relative="1" as="geometry">
            <mxPoint x="400" y="360" as="sourcePoint" />
            <mxPoint x="450" y="310" as="targetPoint" />
          </mxGeometry>
        </mxCell>
        <mxCell id="LKUg-CwAF9THXCwxpRiV-30" value="" style="endArrow=none;html=1;rounded=0;" parent="LKUg-CwAF9THXCwxpRiV-2" source="LKUg-CwAF9THXCwxpRiV-1" target="LKUg-CwAF9THXCwxpRiV-13" edge="1">
          <mxGeometry width="50" height="50" relative="1" as="geometry">
            <mxPoint x="400" y="460" as="sourcePoint" />
            <mxPoint x="450" y="410" as="targetPoint" />
          </mxGeometry>
        </mxCell>
        <mxCell id="LKUg-CwAF9THXCwxpRiV-31" value="" style="endArrow=none;html=1;rounded=0;" parent="LKUg-CwAF9THXCwxpRiV-2" source="LKUg-CwAF9THXCwxpRiV-1" target="LKUg-CwAF9THXCwxpRiV-8" edge="1">
          <mxGeometry width="50" height="50" relative="1" as="geometry">
            <mxPoint x="400" y="260" as="sourcePoint" />
            <mxPoint x="450" y="210" as="targetPoint" />
          </mxGeometry>
        </mxCell>
        <mxCell id="LKUg-CwAF9THXCwxpRiV-32" value="" style="endArrow=none;html=1;rounded=0;" parent="LKUg-CwAF9THXCwxpRiV-2" source="LKUg-CwAF9THXCwxpRiV-14" target="LKUg-CwAF9THXCwxpRiV-22" edge="1">
          <mxGeometry width="50" height="50" relative="1" as="geometry">
            <mxPoint x="400" y="360" as="sourcePoint" />
            <mxPoint x="450" y="310" as="targetPoint" />
          </mxGeometry>
        </mxCell>
        <mxCell id="LKUg-CwAF9THXCwxpRiV-33" value="" style="endArrow=none;html=1;rounded=0;" parent="LKUg-CwAF9THXCwxpRiV-2" source="LKUg-CwAF9THXCwxpRiV-22" target="LKUg-CwAF9THXCwxpRiV-19" edge="1">
          <mxGeometry width="50" height="50" relative="1" as="geometry">
            <mxPoint x="400" y="360" as="sourcePoint" />
            <mxPoint x="450" y="310" as="targetPoint" />
          </mxGeometry>
        </mxCell>
        <mxCell id="LKUg-CwAF9THXCwxpRiV-34" value="" style="endArrow=none;html=1;rounded=0;" parent="LKUg-CwAF9THXCwxpRiV-2" source="LKUg-CwAF9THXCwxpRiV-20" target="LKUg-CwAF9THXCwxpRiV-22" edge="1">
          <mxGeometry width="50" height="50" relative="1" as="geometry">
            <mxPoint x="400" y="360" as="sourcePoint" />
            <mxPoint x="450" y="310" as="targetPoint" />
          </mxGeometry>
        </mxCell>
        <mxCell id="LKUg-CwAF9THXCwxpRiV-35" value="" style="endArrow=none;html=1;rounded=0;" parent="LKUg-CwAF9THXCwxpRiV-2" source="LKUg-CwAF9THXCwxpRiV-16" target="LKUg-CwAF9THXCwxpRiV-22" edge="1">
          <mxGeometry width="50" height="50" relative="1" as="geometry">
            <mxPoint x="400" y="360" as="sourcePoint" />
            <mxPoint x="450" y="310" as="targetPoint" />
          </mxGeometry>
        </mxCell>
        <mxCell id="LKUg-CwAF9THXCwxpRiV-36" value="" style="endArrow=none;html=1;rounded=0;" parent="LKUg-CwAF9THXCwxpRiV-2" source="LKUg-CwAF9THXCwxpRiV-21" target="LKUg-CwAF9THXCwxpRiV-22" edge="1">
          <mxGeometry width="50" height="50" relative="1" as="geometry">
            <mxPoint x="400" y="360" as="sourcePoint" />
            <mxPoint x="450" y="310" as="targetPoint" />
          </mxGeometry>
        </mxCell>
        <mxCell id="LKUg-CwAF9THXCwxpRiV-37" value="" style="endArrow=none;html=1;rounded=0;" parent="LKUg-CwAF9THXCwxpRiV-2" source="LKUg-CwAF9THXCwxpRiV-18" target="LKUg-CwAF9THXCwxpRiV-22" edge="1">
          <mxGeometry width="50" height="50" relative="1" as="geometry">
            <mxPoint x="400" y="460" as="sourcePoint" />
            <mxPoint x="450" y="410" as="targetPoint" />
          </mxGeometry>
        </mxCell>
        <mxCell id="LKUg-CwAF9THXCwxpRiV-38" value="" style="endArrow=none;html=1;rounded=0;" parent="LKUg-CwAF9THXCwxpRiV-2" source="LKUg-CwAF9THXCwxpRiV-17" target="LKUg-CwAF9THXCwxpRiV-22" edge="1">
          <mxGeometry width="50" height="50" relative="1" as="geometry">
            <mxPoint x="400" y="360" as="sourcePoint" />
            <mxPoint x="450" y="310" as="targetPoint" />
          </mxGeometry>
        </mxCell>
      </root>
    </mxGraphModel>
  </diagram>
  <diagram id="nEYmKblelderx2ReR26H" name="Management User Usecase">
    <mxGraphModel dx="1050" dy="581" grid="1" gridSize="10" guides="1" tooltips="1" connect="1" arrows="1" fold="1" page="1" pageScale="1" pageWidth="827" pageHeight="1169" math="0" shadow="0">
      <root>
        <mxCell id="0" />
        <mxCell id="1" parent="0" />
        <mxCell id="L96FNPIfutUVI-1PbMkO-1" value="Quản lý Tài khoản" style="ellipse;whiteSpace=wrap;html=1;fontSize=14;" parent="1" vertex="1">
          <mxGeometry x="352" y="530" width="130" height="60" as="geometry" />
        </mxCell>
        <mxCell id="to99MQRoralFukLyt5T5-1" value="Admin" style="shape=umlActor;verticalLabelPosition=bottom;verticalAlign=top;html=1;outlineConnect=0;fillStyle=auto;strokeWidth=2;fontSize=14;" parent="1" vertex="1">
          <mxGeometry x="202" y="430" width="50" height="100" as="geometry" />
        </mxCell>
        <mxCell id="to99MQRoralFukLyt5T5-2" value="" style="endArrow=none;html=1;rounded=0;fontSize=14;" parent="1" source="L96FNPIfutUVI-1PbMkO-1" target="to99MQRoralFukLyt5T5-1" edge="1">
          <mxGeometry width="50" height="50" relative="1" as="geometry">
            <mxPoint x="452" y="590" as="sourcePoint" />
            <mxPoint x="502" y="540" as="targetPoint" />
          </mxGeometry>
        </mxCell>
        <mxCell id="to99MQRoralFukLyt5T5-3" value="Thêm" style="ellipse;whiteSpace=wrap;html=1;fontSize=14;" parent="1" vertex="1">
          <mxGeometry x="352" y="410" width="90" height="50" as="geometry" />
        </mxCell>
        <mxCell id="to99MQRoralFukLyt5T5-4" value="Sửa" style="ellipse;whiteSpace=wrap;html=1;fontSize=14;" parent="1" vertex="1">
          <mxGeometry x="476" y="410" width="90" height="50" as="geometry" />
        </mxCell>
        <mxCell id="to99MQRoralFukLyt5T5-5" value="Xóa" style="ellipse;whiteSpace=wrap;html=1;fontSize=14;" parent="1" vertex="1">
          <mxGeometry x="566" y="490" width="90" height="50" as="geometry" />
        </mxCell>
        <mxCell id="to99MQRoralFukLyt5T5-6" value="Tìm kiếm" style="ellipse;whiteSpace=wrap;html=1;fontSize=14;" parent="1" vertex="1">
          <mxGeometry x="566" y="580" width="90" height="50" as="geometry" />
        </mxCell>
        <mxCell id="to99MQRoralFukLyt5T5-7" value="Xem chi tiết" style="ellipse;whiteSpace=wrap;html=1;fontSize=14;" parent="1" vertex="1">
          <mxGeometry x="476" y="660" width="90" height="50" as="geometry" />
        </mxCell>
        <mxCell id="to99MQRoralFukLyt5T5-9" value="Extends" style="endArrow=block;endSize=6;endFill=1;html=1;rounded=0;dashed=1;fontSize=14;" parent="1" source="to99MQRoralFukLyt5T5-8" target="L96FNPIfutUVI-1PbMkO-1" edge="1">
          <mxGeometry width="160" relative="1" as="geometry">
            <mxPoint x="392" y="560" as="sourcePoint" />
            <mxPoint x="552" y="560" as="targetPoint" />
          </mxGeometry>
        </mxCell>
        <mxCell id="to99MQRoralFukLyt5T5-10" value="Extends" style="endArrow=block;endSize=6;endFill=1;html=1;rounded=0;dashed=1;fontSize=14;" parent="1" source="to99MQRoralFukLyt5T5-7" target="L96FNPIfutUVI-1PbMkO-1" edge="1">
          <mxGeometry width="160" relative="1" as="geometry">
            <mxPoint x="392" y="560" as="sourcePoint" />
            <mxPoint x="552" y="560" as="targetPoint" />
          </mxGeometry>
        </mxCell>
        <mxCell id="to99MQRoralFukLyt5T5-11" value="Extends" style="endArrow=block;endFill=1;html=1;rounded=0;dashed=1;fontSize=14;" parent="1" source="to99MQRoralFukLyt5T5-3" target="L96FNPIfutUVI-1PbMkO-1" edge="1">
          <mxGeometry width="160" relative="1" as="geometry">
            <mxPoint x="392" y="560" as="sourcePoint" />
            <mxPoint x="552" y="560" as="targetPoint" />
          </mxGeometry>
        </mxCell>
        <mxCell id="to99MQRoralFukLyt5T5-12" value="Extends" style="endArrow=block;endSize=6;endFill=1;html=1;rounded=0;dashed=1;fontSize=14;" parent="1" source="to99MQRoralFukLyt5T5-4" target="L96FNPIfutUVI-1PbMkO-1" edge="1">
          <mxGeometry width="160" relative="1" as="geometry">
            <mxPoint x="392" y="560" as="sourcePoint" />
            <mxPoint x="552" y="560" as="targetPoint" />
          </mxGeometry>
        </mxCell>
        <mxCell id="to99MQRoralFukLyt5T5-13" value="Extends" style="endArrow=block;endSize=6;endFill=1;html=1;rounded=0;dashed=1;fontSize=14;" parent="1" source="to99MQRoralFukLyt5T5-5" target="L96FNPIfutUVI-1PbMkO-1" edge="1">
          <mxGeometry width="160" relative="1" as="geometry">
            <mxPoint x="392" y="560" as="sourcePoint" />
            <mxPoint x="552" y="560" as="targetPoint" />
          </mxGeometry>
        </mxCell>
        <mxCell id="to99MQRoralFukLyt5T5-14" value="Extends" style="endArrow=block;endSize=6;endFill=1;html=1;rounded=0;dashed=1;fontSize=14;" parent="1" source="to99MQRoralFukLyt5T5-6" target="L96FNPIfutUVI-1PbMkO-1" edge="1">
          <mxGeometry width="160" relative="1" as="geometry">
            <mxPoint x="392" y="560" as="sourcePoint" />
            <mxPoint x="552" y="560" as="targetPoint" />
          </mxGeometry>
        </mxCell>
        <mxCell id="to99MQRoralFukLyt5T5-15" value="Đăng nhập" style="ellipse;whiteSpace=wrap;html=1;fontSize=14;" parent="1" vertex="1">
          <mxGeometry x="172" y="630" width="130" height="60" as="geometry" />
        </mxCell>
        <mxCell id="to99MQRoralFukLyt5T5-17" value="Include" style="endArrow=block;endSize=6;endFill=1;html=1;rounded=0;dashed=1;fontSize=14;" parent="1" source="L96FNPIfutUVI-1PbMkO-1" target="to99MQRoralFukLyt5T5-15" edge="1">
          <mxGeometry width="160" relative="1" as="geometry">
            <mxPoint x="312" y="610" as="sourcePoint" />
            <mxPoint x="329" y="540" as="targetPoint" />
          </mxGeometry>
        </mxCell>
        <mxCell id="to99MQRoralFukLyt5T5-18" value="XShop" style="swimlane;whiteSpace=wrap;html=1;" parent="1" vertex="1">
          <mxGeometry x="160" y="360" width="520" height="400" as="geometry" />
        </mxCell>
        <mxCell id="to99MQRoralFukLyt5T5-8" value="Xem danh sách" style="ellipse;whiteSpace=wrap;html=1;fontSize=14;" parent="to99MQRoralFukLyt5T5-18" vertex="1">
          <mxGeometry x="170" y="300" width="112" height="50" as="geometry" />
        </mxCell>
      </root>
    </mxGraphModel>
  </diagram>
  <diagram id="2ygqtZ6_wow51LM2rKPu" name="Management Brand Usecase">
    <mxGraphModel dx="1050" dy="581" grid="1" gridSize="10" guides="1" tooltips="1" connect="1" arrows="1" fold="1" page="1" pageScale="1" pageWidth="827" pageHeight="1169" math="0" shadow="0">
      <root>
        <mxCell id="0" />
        <mxCell id="1" parent="0" />
        <mxCell id="ZmJCrvRFha4p-EKaYsj9-1" value="Quản lý Thương hiệu" style="ellipse;whiteSpace=wrap;html=1;fontSize=14;" parent="1" vertex="1">
          <mxGeometry x="352" y="530" width="130" height="60" as="geometry" />
        </mxCell>
        <mxCell id="ZmJCrvRFha4p-EKaYsj9-2" value="Admin" style="shape=umlActor;verticalLabelPosition=bottom;verticalAlign=top;html=1;outlineConnect=0;fillStyle=auto;strokeWidth=2;fontSize=14;" parent="1" vertex="1">
          <mxGeometry x="202" y="430" width="50" height="100" as="geometry" />
        </mxCell>
        <mxCell id="ZmJCrvRFha4p-EKaYsj9-3" value="" style="endArrow=none;html=1;rounded=0;fontSize=14;" parent="1" source="ZmJCrvRFha4p-EKaYsj9-1" target="ZmJCrvRFha4p-EKaYsj9-2" edge="1">
          <mxGeometry width="50" height="50" relative="1" as="geometry">
            <mxPoint x="452" y="590" as="sourcePoint" />
            <mxPoint x="502" y="540" as="targetPoint" />
          </mxGeometry>
        </mxCell>
        <mxCell id="ZmJCrvRFha4p-EKaYsj9-6" value="Xóa" style="ellipse;whiteSpace=wrap;html=1;fontSize=14;" parent="1" vertex="1">
          <mxGeometry x="566" y="490" width="90" height="50" as="geometry" />
        </mxCell>
        <mxCell id="ZmJCrvRFha4p-EKaYsj9-7" value="Tìm kiếm" style="ellipse;whiteSpace=wrap;html=1;fontSize=14;" parent="1" vertex="1">
          <mxGeometry x="566" y="580" width="90" height="50" as="geometry" />
        </mxCell>
        <mxCell id="ZmJCrvRFha4p-EKaYsj9-8" value="Xem chi tiết" style="ellipse;whiteSpace=wrap;html=1;fontSize=14;" parent="1" vertex="1">
          <mxGeometry x="476" y="660" width="90" height="50" as="geometry" />
        </mxCell>
        <mxCell id="ZmJCrvRFha4p-EKaYsj9-9" value="Xem danh sách" style="ellipse;whiteSpace=wrap;html=1;fontSize=14;" parent="1" vertex="1">
          <mxGeometry x="320" y="660" width="112" height="50" as="geometry" />
        </mxCell>
        <mxCell id="ZmJCrvRFha4p-EKaYsj9-10" value="Extends" style="endArrow=block;endSize=6;endFill=1;html=1;rounded=0;dashed=1;fontSize=14;" parent="1" source="ZmJCrvRFha4p-EKaYsj9-9" target="ZmJCrvRFha4p-EKaYsj9-1" edge="1">
          <mxGeometry width="160" relative="1" as="geometry">
            <mxPoint x="392" y="560" as="sourcePoint" />
            <mxPoint x="552" y="560" as="targetPoint" />
          </mxGeometry>
        </mxCell>
        <mxCell id="ZmJCrvRFha4p-EKaYsj9-11" value="Extends" style="endArrow=block;endSize=6;endFill=1;html=1;rounded=0;dashed=1;fontSize=14;" parent="1" source="ZmJCrvRFha4p-EKaYsj9-8" target="ZmJCrvRFha4p-EKaYsj9-1" edge="1">
          <mxGeometry width="160" relative="1" as="geometry">
            <mxPoint x="392" y="560" as="sourcePoint" />
            <mxPoint x="552" y="560" as="targetPoint" />
          </mxGeometry>
        </mxCell>
        <mxCell id="ZmJCrvRFha4p-EKaYsj9-12" value="Extends" style="endArrow=block;endFill=1;html=1;rounded=0;dashed=1;fontSize=14;" parent="1" source="ZmJCrvRFha4p-EKaYsj9-4" target="ZmJCrvRFha4p-EKaYsj9-1" edge="1">
          <mxGeometry width="160" relative="1" as="geometry">
            <mxPoint x="392" y="560" as="sourcePoint" />
            <mxPoint x="552" y="560" as="targetPoint" />
          </mxGeometry>
        </mxCell>
        <mxCell id="ZmJCrvRFha4p-EKaYsj9-13" value="Extends" style="endArrow=block;endSize=6;endFill=1;html=1;rounded=0;dashed=1;fontSize=14;" parent="1" source="ZmJCrvRFha4p-EKaYsj9-5" target="ZmJCrvRFha4p-EKaYsj9-1" edge="1">
          <mxGeometry width="160" relative="1" as="geometry">
            <mxPoint x="392" y="560" as="sourcePoint" />
            <mxPoint x="552" y="560" as="targetPoint" />
          </mxGeometry>
        </mxCell>
        <mxCell id="ZmJCrvRFha4p-EKaYsj9-14" value="Extends" style="endArrow=block;endSize=6;endFill=1;html=1;rounded=0;dashed=1;fontSize=14;" parent="1" source="ZmJCrvRFha4p-EKaYsj9-6" target="ZmJCrvRFha4p-EKaYsj9-1" edge="1">
          <mxGeometry width="160" relative="1" as="geometry">
            <mxPoint x="392" y="560" as="sourcePoint" />
            <mxPoint x="552" y="560" as="targetPoint" />
          </mxGeometry>
        </mxCell>
        <mxCell id="ZmJCrvRFha4p-EKaYsj9-15" value="Extends" style="endArrow=block;endSize=6;endFill=1;html=1;rounded=0;dashed=1;fontSize=14;" parent="1" source="ZmJCrvRFha4p-EKaYsj9-7" target="ZmJCrvRFha4p-EKaYsj9-1" edge="1">
          <mxGeometry width="160" relative="1" as="geometry">
            <mxPoint x="392" y="560" as="sourcePoint" />
            <mxPoint x="552" y="560" as="targetPoint" />
          </mxGeometry>
        </mxCell>
        <mxCell id="ZmJCrvRFha4p-EKaYsj9-16" value="Đăng nhập" style="ellipse;whiteSpace=wrap;html=1;fontSize=14;" parent="1" vertex="1">
          <mxGeometry x="172" y="630" width="130" height="60" as="geometry" />
        </mxCell>
        <mxCell id="ZmJCrvRFha4p-EKaYsj9-17" value="Include" style="endArrow=block;endSize=6;endFill=1;html=1;rounded=0;dashed=1;fontSize=14;" parent="1" source="ZmJCrvRFha4p-EKaYsj9-1" target="ZmJCrvRFha4p-EKaYsj9-16" edge="1">
          <mxGeometry width="160" relative="1" as="geometry">
            <mxPoint x="312" y="610" as="sourcePoint" />
            <mxPoint x="329" y="540" as="targetPoint" />
          </mxGeometry>
        </mxCell>
        <mxCell id="ZmJCrvRFha4p-EKaYsj9-18" value="XShop" style="swimlane;whiteSpace=wrap;html=1;" parent="1" vertex="1">
          <mxGeometry x="160" y="360" width="520" height="400" as="geometry" />
        </mxCell>
        <mxCell id="ZmJCrvRFha4p-EKaYsj9-4" value="Thêm" style="ellipse;whiteSpace=wrap;html=1;fontSize=14;" parent="ZmJCrvRFha4p-EKaYsj9-18" vertex="1">
          <mxGeometry x="140" y="50" width="90" height="50" as="geometry" />
        </mxCell>
        <mxCell id="ZmJCrvRFha4p-EKaYsj9-5" value="Sửa" style="ellipse;whiteSpace=wrap;html=1;fontSize=14;" parent="ZmJCrvRFha4p-EKaYsj9-18" vertex="1">
          <mxGeometry x="310" y="50" width="90" height="50" as="geometry" />
        </mxCell>
      </root>
    </mxGraphModel>
  </diagram>
  <diagram id="XV6AHEp1O63bNQvyggJf" name="Management Category ProductUsecase">
    <mxGraphModel dx="1050" dy="581" grid="1" gridSize="10" guides="1" tooltips="1" connect="1" arrows="1" fold="1" page="1" pageScale="1" pageWidth="827" pageHeight="1169" math="0" shadow="0">
      <root>
        <mxCell id="0" />
        <mxCell id="1" parent="0" />
        <mxCell id="Byj5dW2lJJAG6uzub-w4-1" value="Quản lý danh mục sản phẩm" style="ellipse;whiteSpace=wrap;html=1;fontSize=14;" parent="1" vertex="1">
          <mxGeometry x="352" y="530" width="130" height="60" as="geometry" />
        </mxCell>
        <mxCell id="Byj5dW2lJJAG6uzub-w4-2" value="Admin" style="shape=umlActor;verticalLabelPosition=bottom;verticalAlign=top;html=1;outlineConnect=0;fillStyle=auto;strokeWidth=2;fontSize=14;" parent="1" vertex="1">
          <mxGeometry x="202" y="430" width="50" height="100" as="geometry" />
        </mxCell>
        <mxCell id="Byj5dW2lJJAG6uzub-w4-3" value="" style="endArrow=none;html=1;rounded=0;fontSize=14;" parent="1" source="Byj5dW2lJJAG6uzub-w4-1" target="Byj5dW2lJJAG6uzub-w4-2" edge="1">
          <mxGeometry width="50" height="50" relative="1" as="geometry">
            <mxPoint x="452" y="590" as="sourcePoint" />
            <mxPoint x="502" y="540" as="targetPoint" />
          </mxGeometry>
        </mxCell>
        <mxCell id="Byj5dW2lJJAG6uzub-w4-4" value="Thêm" style="ellipse;whiteSpace=wrap;html=1;fontSize=14;" parent="1" vertex="1">
          <mxGeometry x="352" y="410" width="90" height="50" as="geometry" />
        </mxCell>
        <mxCell id="Byj5dW2lJJAG6uzub-w4-5" value="Sửa" style="ellipse;whiteSpace=wrap;html=1;fontSize=14;" parent="1" vertex="1">
          <mxGeometry x="476" y="410" width="90" height="50" as="geometry" />
        </mxCell>
        <mxCell id="Byj5dW2lJJAG6uzub-w4-6" value="Xóa" style="ellipse;whiteSpace=wrap;html=1;fontSize=14;" parent="1" vertex="1">
          <mxGeometry x="566" y="490" width="90" height="50" as="geometry" />
        </mxCell>
        <mxCell id="Byj5dW2lJJAG6uzub-w4-7" value="Tìm kiếm" style="ellipse;whiteSpace=wrap;html=1;fontSize=14;" parent="1" vertex="1">
          <mxGeometry x="566" y="580" width="90" height="50" as="geometry" />
        </mxCell>
        <mxCell id="Byj5dW2lJJAG6uzub-w4-8" value="Xem chi tiết" style="ellipse;whiteSpace=wrap;html=1;fontSize=14;" parent="1" vertex="1">
          <mxGeometry x="476" y="660" width="90" height="50" as="geometry" />
        </mxCell>
        <mxCell id="Byj5dW2lJJAG6uzub-w4-9" value="Xem danh sách" style="ellipse;whiteSpace=wrap;html=1;fontSize=14;" parent="1" vertex="1">
          <mxGeometry x="320" y="660" width="112" height="50" as="geometry" />
        </mxCell>
        <mxCell id="Byj5dW2lJJAG6uzub-w4-10" value="Extends" style="endArrow=block;endSize=6;endFill=1;html=1;rounded=0;dashed=1;fontSize=14;" parent="1" source="Byj5dW2lJJAG6uzub-w4-9" target="Byj5dW2lJJAG6uzub-w4-1" edge="1">
          <mxGeometry width="160" relative="1" as="geometry">
            <mxPoint x="392" y="560" as="sourcePoint" />
            <mxPoint x="552" y="560" as="targetPoint" />
          </mxGeometry>
        </mxCell>
        <mxCell id="Byj5dW2lJJAG6uzub-w4-11" value="Extends" style="endArrow=block;endSize=6;endFill=1;html=1;rounded=0;dashed=1;fontSize=14;" parent="1" source="Byj5dW2lJJAG6uzub-w4-8" target="Byj5dW2lJJAG6uzub-w4-1" edge="1">
          <mxGeometry width="160" relative="1" as="geometry">
            <mxPoint x="392" y="560" as="sourcePoint" />
            <mxPoint x="552" y="560" as="targetPoint" />
          </mxGeometry>
        </mxCell>
        <mxCell id="Byj5dW2lJJAG6uzub-w4-12" value="Extends" style="endArrow=block;endFill=1;html=1;rounded=0;dashed=1;fontSize=14;" parent="1" source="Byj5dW2lJJAG6uzub-w4-4" target="Byj5dW2lJJAG6uzub-w4-1" edge="1">
          <mxGeometry width="160" relative="1" as="geometry">
            <mxPoint x="392" y="560" as="sourcePoint" />
            <mxPoint x="552" y="560" as="targetPoint" />
          </mxGeometry>
        </mxCell>
        <mxCell id="Byj5dW2lJJAG6uzub-w4-13" value="Extends" style="endArrow=block;endSize=6;endFill=1;html=1;rounded=0;dashed=1;fontSize=14;" parent="1" source="Byj5dW2lJJAG6uzub-w4-5" target="Byj5dW2lJJAG6uzub-w4-1" edge="1">
          <mxGeometry width="160" relative="1" as="geometry">
            <mxPoint x="392" y="560" as="sourcePoint" />
            <mxPoint x="552" y="560" as="targetPoint" />
          </mxGeometry>
        </mxCell>
        <mxCell id="Byj5dW2lJJAG6uzub-w4-14" value="Extends" style="endArrow=block;endSize=6;endFill=1;html=1;rounded=0;dashed=1;fontSize=14;" parent="1" source="Byj5dW2lJJAG6uzub-w4-6" target="Byj5dW2lJJAG6uzub-w4-1" edge="1">
          <mxGeometry width="160" relative="1" as="geometry">
            <mxPoint x="392" y="560" as="sourcePoint" />
            <mxPoint x="552" y="560" as="targetPoint" />
          </mxGeometry>
        </mxCell>
        <mxCell id="Byj5dW2lJJAG6uzub-w4-15" value="Extends" style="endArrow=block;endSize=6;endFill=1;html=1;rounded=0;dashed=1;fontSize=14;" parent="1" source="Byj5dW2lJJAG6uzub-w4-7" target="Byj5dW2lJJAG6uzub-w4-1" edge="1">
          <mxGeometry width="160" relative="1" as="geometry">
            <mxPoint x="392" y="560" as="sourcePoint" />
            <mxPoint x="552" y="560" as="targetPoint" />
          </mxGeometry>
        </mxCell>
        <mxCell id="Byj5dW2lJJAG6uzub-w4-16" value="Đăng nhập" style="ellipse;whiteSpace=wrap;html=1;fontSize=14;" parent="1" vertex="1">
          <mxGeometry x="172" y="630" width="130" height="60" as="geometry" />
        </mxCell>
        <mxCell id="Byj5dW2lJJAG6uzub-w4-17" value="Include" style="endArrow=block;endSize=6;endFill=1;html=1;rounded=0;dashed=1;fontSize=14;" parent="1" source="Byj5dW2lJJAG6uzub-w4-1" target="Byj5dW2lJJAG6uzub-w4-16" edge="1">
          <mxGeometry width="160" relative="1" as="geometry">
            <mxPoint x="312" y="610" as="sourcePoint" />
            <mxPoint x="329" y="540" as="targetPoint" />
          </mxGeometry>
        </mxCell>
        <mxCell id="Byj5dW2lJJAG6uzub-w4-18" value="XShop" style="swimlane;whiteSpace=wrap;html=1;" parent="1" vertex="1">
          <mxGeometry x="160" y="360" width="520" height="400" as="geometry" />
        </mxCell>
      </root>
    </mxGraphModel>
  </diagram>
  <diagram id="JInpkztGSTz2mqblCV1H" name="Management Product Usecase">
    <mxGraphModel dx="1050" dy="581" grid="1" gridSize="10" guides="1" tooltips="1" connect="1" arrows="1" fold="1" page="1" pageScale="1" pageWidth="827" pageHeight="1169" math="0" shadow="0">
      <root>
        <mxCell id="0" />
        <mxCell id="1" parent="0" />
        <mxCell id="zrESJ11bi_OO6y8ZCEdV-1" value="Quản lý Sản phẩm" style="ellipse;whiteSpace=wrap;html=1;fontSize=14;" parent="1" vertex="1">
          <mxGeometry x="352" y="530" width="130" height="60" as="geometry" />
        </mxCell>
        <mxCell id="zrESJ11bi_OO6y8ZCEdV-3" value="" style="endArrow=none;html=1;rounded=0;fontSize=14;" parent="1" source="zrESJ11bi_OO6y8ZCEdV-1" target="zrESJ11bi_OO6y8ZCEdV-2" edge="1">
          <mxGeometry width="50" height="50" relative="1" as="geometry">
            <mxPoint x="452" y="590" as="sourcePoint" />
            <mxPoint x="502" y="540" as="targetPoint" />
          </mxGeometry>
        </mxCell>
        <mxCell id="zrESJ11bi_OO6y8ZCEdV-5" value="Sửa" style="ellipse;whiteSpace=wrap;html=1;fontSize=14;" parent="1" vertex="1">
          <mxGeometry x="476" y="410" width="90" height="50" as="geometry" />
        </mxCell>
        <mxCell id="zrESJ11bi_OO6y8ZCEdV-6" value="Xóa" style="ellipse;whiteSpace=wrap;html=1;fontSize=14;" parent="1" vertex="1">
          <mxGeometry x="566" y="490" width="90" height="50" as="geometry" />
        </mxCell>
        <mxCell id="zrESJ11bi_OO6y8ZCEdV-7" value="Tìm kiếm" style="ellipse;whiteSpace=wrap;html=1;fontSize=14;" parent="1" vertex="1">
          <mxGeometry x="566" y="580" width="90" height="50" as="geometry" />
        </mxCell>
        <mxCell id="zrESJ11bi_OO6y8ZCEdV-8" value="Xem chi tiết" style="ellipse;whiteSpace=wrap;html=1;fontSize=14;" parent="1" vertex="1">
          <mxGeometry x="476" y="660" width="90" height="50" as="geometry" />
        </mxCell>
        <mxCell id="zrESJ11bi_OO6y8ZCEdV-9" value="Xem danh sách" style="ellipse;whiteSpace=wrap;html=1;fontSize=14;" parent="1" vertex="1">
          <mxGeometry x="320" y="660" width="112" height="50" as="geometry" />
        </mxCell>
        <mxCell id="zrESJ11bi_OO6y8ZCEdV-10" value="Extends" style="endArrow=block;endSize=6;endFill=1;html=1;rounded=0;dashed=1;fontSize=14;" parent="1" source="zrESJ11bi_OO6y8ZCEdV-9" target="zrESJ11bi_OO6y8ZCEdV-1" edge="1">
          <mxGeometry width="160" relative="1" as="geometry">
            <mxPoint x="392" y="560" as="sourcePoint" />
            <mxPoint x="552" y="560" as="targetPoint" />
          </mxGeometry>
        </mxCell>
        <mxCell id="zrESJ11bi_OO6y8ZCEdV-11" value="Extends" style="endArrow=block;endSize=6;endFill=1;html=1;rounded=0;dashed=1;fontSize=14;" parent="1" source="zrESJ11bi_OO6y8ZCEdV-8" target="zrESJ11bi_OO6y8ZCEdV-1" edge="1">
          <mxGeometry width="160" relative="1" as="geometry">
            <mxPoint x="392" y="560" as="sourcePoint" />
            <mxPoint x="552" y="560" as="targetPoint" />
          </mxGeometry>
        </mxCell>
        <mxCell id="zrESJ11bi_OO6y8ZCEdV-12" value="Extends" style="endArrow=block;endFill=1;html=1;rounded=0;dashed=1;fontSize=14;" parent="1" source="zrESJ11bi_OO6y8ZCEdV-4" target="zrESJ11bi_OO6y8ZCEdV-1" edge="1">
          <mxGeometry width="160" relative="1" as="geometry">
            <mxPoint x="392" y="560" as="sourcePoint" />
            <mxPoint x="552" y="560" as="targetPoint" />
          </mxGeometry>
        </mxCell>
        <mxCell id="zrESJ11bi_OO6y8ZCEdV-13" value="Extends" style="endArrow=block;endSize=6;endFill=1;html=1;rounded=0;dashed=1;fontSize=14;" parent="1" source="zrESJ11bi_OO6y8ZCEdV-5" target="zrESJ11bi_OO6y8ZCEdV-1" edge="1">
          <mxGeometry width="160" relative="1" as="geometry">
            <mxPoint x="392" y="560" as="sourcePoint" />
            <mxPoint x="552" y="560" as="targetPoint" />
          </mxGeometry>
        </mxCell>
        <mxCell id="zrESJ11bi_OO6y8ZCEdV-14" value="Extends" style="endArrow=block;endSize=6;endFill=1;html=1;rounded=0;dashed=1;fontSize=14;" parent="1" source="zrESJ11bi_OO6y8ZCEdV-6" target="zrESJ11bi_OO6y8ZCEdV-1" edge="1">
          <mxGeometry width="160" relative="1" as="geometry">
            <mxPoint x="392" y="560" as="sourcePoint" />
            <mxPoint x="552" y="560" as="targetPoint" />
          </mxGeometry>
        </mxCell>
        <mxCell id="zrESJ11bi_OO6y8ZCEdV-15" value="Extends" style="endArrow=block;endSize=6;endFill=1;html=1;rounded=0;dashed=1;fontSize=14;" parent="1" source="zrESJ11bi_OO6y8ZCEdV-7" target="zrESJ11bi_OO6y8ZCEdV-1" edge="1">
          <mxGeometry width="160" relative="1" as="geometry">
            <mxPoint x="392" y="560" as="sourcePoint" />
            <mxPoint x="552" y="560" as="targetPoint" />
          </mxGeometry>
        </mxCell>
        <mxCell id="zrESJ11bi_OO6y8ZCEdV-16" value="Đăng nhập" style="ellipse;whiteSpace=wrap;html=1;fontSize=14;" parent="1" vertex="1">
          <mxGeometry x="172" y="630" width="130" height="60" as="geometry" />
        </mxCell>
        <mxCell id="zrESJ11bi_OO6y8ZCEdV-17" value="Include" style="endArrow=block;endSize=6;endFill=1;html=1;rounded=0;dashed=1;fontSize=14;" parent="1" source="zrESJ11bi_OO6y8ZCEdV-1" target="zrESJ11bi_OO6y8ZCEdV-16" edge="1">
          <mxGeometry width="160" relative="1" as="geometry">
            <mxPoint x="312" y="610" as="sourcePoint" />
            <mxPoint x="329" y="540" as="targetPoint" />
          </mxGeometry>
        </mxCell>
        <mxCell id="zrESJ11bi_OO6y8ZCEdV-18" value="XShop" style="swimlane;whiteSpace=wrap;html=1;" parent="1" vertex="1">
          <mxGeometry x="160" y="360" width="520" height="400" as="geometry" />
        </mxCell>
        <mxCell id="zrESJ11bi_OO6y8ZCEdV-4" value="Thêm" style="ellipse;whiteSpace=wrap;html=1;fontSize=14;" parent="zrESJ11bi_OO6y8ZCEdV-18" vertex="1">
          <mxGeometry x="150" y="50" width="90" height="50" as="geometry" />
        </mxCell>
        <mxCell id="zrESJ11bi_OO6y8ZCEdV-2" value="Admin" style="shape=umlActor;verticalLabelPosition=bottom;verticalAlign=top;html=1;outlineConnect=0;fillStyle=auto;strokeWidth=2;fontSize=14;" parent="zrESJ11bi_OO6y8ZCEdV-18" vertex="1">
          <mxGeometry x="42" y="80" width="50" height="100" as="geometry" />
        </mxCell>
      </root>
    </mxGraphModel>
  </diagram>
  <diagram id="cZYCp9qjc4j3gb3FgR3C" name="Management Blog Category Usecase">
    <mxGraphModel dx="1050" dy="581" grid="1" gridSize="10" guides="1" tooltips="1" connect="1" arrows="1" fold="1" page="1" pageScale="1" pageWidth="827" pageHeight="1169" math="0" shadow="0">
      <root>
        <mxCell id="0" />
        <mxCell id="1" parent="0" />
        <mxCell id="fLS0Nvhy0T3qD0LKe-5h-1" value="Quản lý Danh mục Bài viết" style="ellipse;whiteSpace=wrap;html=1;fontSize=14;" parent="1" vertex="1">
          <mxGeometry x="352" y="530" width="130" height="60" as="geometry" />
        </mxCell>
        <mxCell id="fLS0Nvhy0T3qD0LKe-5h-2" value="Admin" style="shape=umlActor;verticalLabelPosition=bottom;verticalAlign=top;html=1;outlineConnect=0;fillStyle=auto;strokeWidth=2;fontSize=14;" parent="1" vertex="1">
          <mxGeometry x="202" y="430" width="50" height="100" as="geometry" />
        </mxCell>
        <mxCell id="fLS0Nvhy0T3qD0LKe-5h-3" value="" style="endArrow=none;html=1;rounded=0;fontSize=14;" parent="1" source="fLS0Nvhy0T3qD0LKe-5h-1" target="fLS0Nvhy0T3qD0LKe-5h-2" edge="1">
          <mxGeometry width="50" height="50" relative="1" as="geometry">
            <mxPoint x="452" y="590" as="sourcePoint" />
            <mxPoint x="502" y="540" as="targetPoint" />
          </mxGeometry>
        </mxCell>
        <mxCell id="fLS0Nvhy0T3qD0LKe-5h-4" value="Thêm" style="ellipse;whiteSpace=wrap;html=1;fontSize=14;" parent="1" vertex="1">
          <mxGeometry x="352" y="410" width="90" height="50" as="geometry" />
        </mxCell>
        <mxCell id="fLS0Nvhy0T3qD0LKe-5h-5" value="Sửa" style="ellipse;whiteSpace=wrap;html=1;fontSize=14;" parent="1" vertex="1">
          <mxGeometry x="476" y="410" width="90" height="50" as="geometry" />
        </mxCell>
        <mxCell id="fLS0Nvhy0T3qD0LKe-5h-6" value="Xóa" style="ellipse;whiteSpace=wrap;html=1;fontSize=14;" parent="1" vertex="1">
          <mxGeometry x="566" y="490" width="90" height="50" as="geometry" />
        </mxCell>
        <mxCell id="fLS0Nvhy0T3qD0LKe-5h-7" value="Tìm kiếm" style="ellipse;whiteSpace=wrap;html=1;fontSize=14;" parent="1" vertex="1">
          <mxGeometry x="566" y="580" width="90" height="50" as="geometry" />
        </mxCell>
        <mxCell id="fLS0Nvhy0T3qD0LKe-5h-8" value="Xem chi tiết" style="ellipse;whiteSpace=wrap;html=1;fontSize=14;" parent="1" vertex="1">
          <mxGeometry x="476" y="660" width="90" height="50" as="geometry" />
        </mxCell>
        <mxCell id="fLS0Nvhy0T3qD0LKe-5h-9" value="Xem danh sách" style="ellipse;whiteSpace=wrap;html=1;fontSize=14;" parent="1" vertex="1">
          <mxGeometry x="330" y="660" width="110" height="50" as="geometry" />
        </mxCell>
        <mxCell id="fLS0Nvhy0T3qD0LKe-5h-10" value="Extends" style="endArrow=block;endSize=6;endFill=1;html=1;rounded=0;dashed=1;fontSize=14;" parent="1" source="fLS0Nvhy0T3qD0LKe-5h-9" target="fLS0Nvhy0T3qD0LKe-5h-1" edge="1">
          <mxGeometry width="160" relative="1" as="geometry">
            <mxPoint x="392" y="560" as="sourcePoint" />
            <mxPoint x="552" y="560" as="targetPoint" />
          </mxGeometry>
        </mxCell>
        <mxCell id="fLS0Nvhy0T3qD0LKe-5h-11" value="Extends" style="endArrow=block;endSize=6;endFill=1;html=1;rounded=0;dashed=1;fontSize=14;" parent="1" source="fLS0Nvhy0T3qD0LKe-5h-8" target="fLS0Nvhy0T3qD0LKe-5h-1" edge="1">
          <mxGeometry width="160" relative="1" as="geometry">
            <mxPoint x="392" y="560" as="sourcePoint" />
            <mxPoint x="552" y="560" as="targetPoint" />
          </mxGeometry>
        </mxCell>
        <mxCell id="fLS0Nvhy0T3qD0LKe-5h-12" value="Extends" style="endArrow=block;endFill=1;html=1;rounded=0;dashed=1;fontSize=14;" parent="1" source="fLS0Nvhy0T3qD0LKe-5h-4" target="fLS0Nvhy0T3qD0LKe-5h-1" edge="1">
          <mxGeometry width="160" relative="1" as="geometry">
            <mxPoint x="392" y="560" as="sourcePoint" />
            <mxPoint x="552" y="560" as="targetPoint" />
          </mxGeometry>
        </mxCell>
        <mxCell id="fLS0Nvhy0T3qD0LKe-5h-13" value="Extends" style="endArrow=block;endSize=6;endFill=1;html=1;rounded=0;dashed=1;fontSize=14;" parent="1" source="fLS0Nvhy0T3qD0LKe-5h-5" target="fLS0Nvhy0T3qD0LKe-5h-1" edge="1">
          <mxGeometry width="160" relative="1" as="geometry">
            <mxPoint x="392" y="560" as="sourcePoint" />
            <mxPoint x="552" y="560" as="targetPoint" />
          </mxGeometry>
        </mxCell>
        <mxCell id="fLS0Nvhy0T3qD0LKe-5h-14" value="Extends" style="endArrow=block;endSize=6;endFill=1;html=1;rounded=0;dashed=1;fontSize=14;" parent="1" source="fLS0Nvhy0T3qD0LKe-5h-6" target="fLS0Nvhy0T3qD0LKe-5h-1" edge="1">
          <mxGeometry width="160" relative="1" as="geometry">
            <mxPoint x="392" y="560" as="sourcePoint" />
            <mxPoint x="552" y="560" as="targetPoint" />
          </mxGeometry>
        </mxCell>
        <mxCell id="fLS0Nvhy0T3qD0LKe-5h-15" value="Extends" style="endArrow=block;endSize=6;endFill=1;html=1;rounded=0;dashed=1;fontSize=14;" parent="1" source="fLS0Nvhy0T3qD0LKe-5h-7" target="fLS0Nvhy0T3qD0LKe-5h-1" edge="1">
          <mxGeometry width="160" relative="1" as="geometry">
            <mxPoint x="392" y="560" as="sourcePoint" />
            <mxPoint x="552" y="560" as="targetPoint" />
          </mxGeometry>
        </mxCell>
        <mxCell id="fLS0Nvhy0T3qD0LKe-5h-16" value="Đăng nhập" style="ellipse;whiteSpace=wrap;html=1;fontSize=14;" parent="1" vertex="1">
          <mxGeometry x="172" y="630" width="130" height="60" as="geometry" />
        </mxCell>
        <mxCell id="fLS0Nvhy0T3qD0LKe-5h-17" value="Include" style="endArrow=block;endSize=6;endFill=1;html=1;rounded=0;dashed=1;fontSize=14;" parent="1" source="fLS0Nvhy0T3qD0LKe-5h-1" target="fLS0Nvhy0T3qD0LKe-5h-16" edge="1">
          <mxGeometry width="160" relative="1" as="geometry">
            <mxPoint x="312" y="610" as="sourcePoint" />
            <mxPoint x="329" y="540" as="targetPoint" />
          </mxGeometry>
        </mxCell>
        <mxCell id="fLS0Nvhy0T3qD0LKe-5h-18" value="XShop" style="swimlane;whiteSpace=wrap;html=1;" parent="1" vertex="1">
          <mxGeometry x="160" y="360" width="520" height="400" as="geometry" />
        </mxCell>
      </root>
    </mxGraphModel>
  </diagram>
  <diagram id="N4sQxFSAdtX-kvTzDemx" name="Management Blog Usecase">
    <mxGraphModel dx="1050" dy="581" grid="1" gridSize="10" guides="1" tooltips="1" connect="1" arrows="1" fold="1" page="1" pageScale="1" pageWidth="827" pageHeight="1169" math="0" shadow="0">
      <root>
        <mxCell id="0" />
        <mxCell id="1" parent="0" />
        <mxCell id="ctBzRY7z-lcfCLz19YKK-1" value="Quản lý Bài viết" style="ellipse;whiteSpace=wrap;html=1;fontSize=14;" parent="1" vertex="1">
          <mxGeometry x="352" y="530" width="130" height="60" as="geometry" />
        </mxCell>
        <mxCell id="ctBzRY7z-lcfCLz19YKK-2" value="Admin" style="shape=umlActor;verticalLabelPosition=bottom;verticalAlign=top;html=1;outlineConnect=0;fillStyle=auto;strokeWidth=2;fontSize=14;" parent="1" vertex="1">
          <mxGeometry x="202" y="430" width="50" height="100" as="geometry" />
        </mxCell>
        <mxCell id="ctBzRY7z-lcfCLz19YKK-3" value="" style="endArrow=none;html=1;rounded=0;fontSize=14;" parent="1" source="ctBzRY7z-lcfCLz19YKK-1" target="ctBzRY7z-lcfCLz19YKK-2" edge="1">
          <mxGeometry width="50" height="50" relative="1" as="geometry">
            <mxPoint x="452" y="590" as="sourcePoint" />
            <mxPoint x="502" y="540" as="targetPoint" />
          </mxGeometry>
        </mxCell>
        <mxCell id="ctBzRY7z-lcfCLz19YKK-4" value="Thêm" style="ellipse;whiteSpace=wrap;html=1;fontSize=14;" parent="1" vertex="1">
          <mxGeometry x="352" y="410" width="90" height="50" as="geometry" />
        </mxCell>
        <mxCell id="ctBzRY7z-lcfCLz19YKK-5" value="Sửa" style="ellipse;whiteSpace=wrap;html=1;fontSize=14;" parent="1" vertex="1">
          <mxGeometry x="476" y="410" width="90" height="50" as="geometry" />
        </mxCell>
        <mxCell id="ctBzRY7z-lcfCLz19YKK-6" value="Xóa" style="ellipse;whiteSpace=wrap;html=1;fontSize=14;" parent="1" vertex="1">
          <mxGeometry x="566" y="490" width="90" height="50" as="geometry" />
        </mxCell>
        <mxCell id="ctBzRY7z-lcfCLz19YKK-7" value="Tìm kiếm" style="ellipse;whiteSpace=wrap;html=1;fontSize=14;" parent="1" vertex="1">
          <mxGeometry x="566" y="580" width="90" height="50" as="geometry" />
        </mxCell>
        <mxCell id="ctBzRY7z-lcfCLz19YKK-8" value="Xem chi tiết" style="ellipse;whiteSpace=wrap;html=1;fontSize=14;" parent="1" vertex="1">
          <mxGeometry x="476" y="660" width="90" height="50" as="geometry" />
        </mxCell>
        <mxCell id="ctBzRY7z-lcfCLz19YKK-9" value="Xem danh sách" style="ellipse;whiteSpace=wrap;html=1;fontSize=14;" parent="1" vertex="1">
          <mxGeometry x="342" y="660" width="90" height="50" as="geometry" />
        </mxCell>
        <mxCell id="ctBzRY7z-lcfCLz19YKK-10" value="Extends" style="endArrow=block;endSize=6;endFill=1;html=1;rounded=0;dashed=1;fontSize=14;" parent="1" source="ctBzRY7z-lcfCLz19YKK-9" target="ctBzRY7z-lcfCLz19YKK-1" edge="1">
          <mxGeometry width="160" relative="1" as="geometry">
            <mxPoint x="392" y="560" as="sourcePoint" />
            <mxPoint x="552" y="560" as="targetPoint" />
          </mxGeometry>
        </mxCell>
        <mxCell id="ctBzRY7z-lcfCLz19YKK-11" value="Extends" style="endArrow=block;endSize=6;endFill=1;html=1;rounded=0;dashed=1;fontSize=14;" parent="1" source="ctBzRY7z-lcfCLz19YKK-8" target="ctBzRY7z-lcfCLz19YKK-1" edge="1">
          <mxGeometry width="160" relative="1" as="geometry">
            <mxPoint x="392" y="560" as="sourcePoint" />
            <mxPoint x="552" y="560" as="targetPoint" />
          </mxGeometry>
        </mxCell>
        <mxCell id="ctBzRY7z-lcfCLz19YKK-12" value="Extends" style="endArrow=block;endFill=1;html=1;rounded=0;dashed=1;fontSize=14;" parent="1" source="ctBzRY7z-lcfCLz19YKK-4" target="ctBzRY7z-lcfCLz19YKK-1" edge="1">
          <mxGeometry width="160" relative="1" as="geometry">
            <mxPoint x="392" y="560" as="sourcePoint" />
            <mxPoint x="552" y="560" as="targetPoint" />
          </mxGeometry>
        </mxCell>
        <mxCell id="ctBzRY7z-lcfCLz19YKK-13" value="Extends" style="endArrow=block;endSize=6;endFill=1;html=1;rounded=0;dashed=1;fontSize=14;" parent="1" source="ctBzRY7z-lcfCLz19YKK-5" target="ctBzRY7z-lcfCLz19YKK-1" edge="1">
          <mxGeometry width="160" relative="1" as="geometry">
            <mxPoint x="392" y="560" as="sourcePoint" />
            <mxPoint x="552" y="560" as="targetPoint" />
          </mxGeometry>
        </mxCell>
        <mxCell id="ctBzRY7z-lcfCLz19YKK-14" value="Extends" style="endArrow=block;endSize=6;endFill=1;html=1;rounded=0;dashed=1;fontSize=14;" parent="1" source="ctBzRY7z-lcfCLz19YKK-6" target="ctBzRY7z-lcfCLz19YKK-1" edge="1">
          <mxGeometry width="160" relative="1" as="geometry">
            <mxPoint x="392" y="560" as="sourcePoint" />
            <mxPoint x="552" y="560" as="targetPoint" />
          </mxGeometry>
        </mxCell>
        <mxCell id="ctBzRY7z-lcfCLz19YKK-15" value="Extends" style="endArrow=block;endSize=6;endFill=1;html=1;rounded=0;dashed=1;fontSize=14;" parent="1" source="ctBzRY7z-lcfCLz19YKK-7" target="ctBzRY7z-lcfCLz19YKK-1" edge="1">
          <mxGeometry width="160" relative="1" as="geometry">
            <mxPoint x="392" y="560" as="sourcePoint" />
            <mxPoint x="552" y="560" as="targetPoint" />
          </mxGeometry>
        </mxCell>
        <mxCell id="ctBzRY7z-lcfCLz19YKK-16" value="Đăng nhập" style="ellipse;whiteSpace=wrap;html=1;fontSize=14;" parent="1" vertex="1">
          <mxGeometry x="172" y="630" width="130" height="60" as="geometry" />
        </mxCell>
        <mxCell id="ctBzRY7z-lcfCLz19YKK-17" value="Include" style="endArrow=block;endSize=6;endFill=1;html=1;rounded=0;dashed=1;fontSize=14;" parent="1" source="ctBzRY7z-lcfCLz19YKK-1" target="ctBzRY7z-lcfCLz19YKK-16" edge="1">
          <mxGeometry width="160" relative="1" as="geometry">
            <mxPoint x="312" y="610" as="sourcePoint" />
            <mxPoint x="329" y="540" as="targetPoint" />
          </mxGeometry>
        </mxCell>
        <mxCell id="ctBzRY7z-lcfCLz19YKK-18" value="XShop" style="swimlane;whiteSpace=wrap;html=1;" parent="1" vertex="1">
          <mxGeometry x="160" y="360" width="520" height="400" as="geometry" />
        </mxCell>
      </root>
    </mxGraphModel>
  </diagram>
  <diagram id="8u-z-b6B0aDxL3BFoY92" name="Management Order Usecase">
    <mxGraphModel dx="1050" dy="581" grid="1" gridSize="10" guides="1" tooltips="1" connect="1" arrows="1" fold="1" page="1" pageScale="1" pageWidth="827" pageHeight="1169" math="0" shadow="0">
      <root>
        <mxCell id="0" />
        <mxCell id="1" parent="0" />
        <mxCell id="3qdDtQ0339SbhDIQjLVR-1" value="Quản lý Đơn hàng" style="ellipse;whiteSpace=wrap;html=1;fontSize=14;" parent="1" vertex="1">
          <mxGeometry x="352" y="530" width="130" height="60" as="geometry" />
        </mxCell>
        <mxCell id="3qdDtQ0339SbhDIQjLVR-2" value="Admin" style="shape=umlActor;verticalLabelPosition=bottom;verticalAlign=top;html=1;outlineConnect=0;fillStyle=auto;strokeWidth=2;fontSize=14;" parent="1" vertex="1">
          <mxGeometry x="202" y="430" width="50" height="100" as="geometry" />
        </mxCell>
        <mxCell id="3qdDtQ0339SbhDIQjLVR-3" value="" style="endArrow=none;html=1;rounded=0;fontSize=14;" parent="1" source="3qdDtQ0339SbhDIQjLVR-1" target="3qdDtQ0339SbhDIQjLVR-2" edge="1">
          <mxGeometry width="50" height="50" relative="1" as="geometry">
            <mxPoint x="452" y="590" as="sourcePoint" />
            <mxPoint x="502" y="540" as="targetPoint" />
          </mxGeometry>
        </mxCell>
        <mxCell id="3qdDtQ0339SbhDIQjLVR-4" value="Thêm" style="ellipse;whiteSpace=wrap;html=1;fontSize=14;" parent="1" vertex="1">
          <mxGeometry x="352" y="410" width="90" height="50" as="geometry" />
        </mxCell>
        <mxCell id="3qdDtQ0339SbhDIQjLVR-5" value="Sửa" style="ellipse;whiteSpace=wrap;html=1;fontSize=14;" parent="1" vertex="1">
          <mxGeometry x="476" y="410" width="90" height="50" as="geometry" />
        </mxCell>
        <mxCell id="3qdDtQ0339SbhDIQjLVR-6" value="Xóa" style="ellipse;whiteSpace=wrap;html=1;fontSize=14;" parent="1" vertex="1">
          <mxGeometry x="566" y="490" width="90" height="50" as="geometry" />
        </mxCell>
        <mxCell id="3qdDtQ0339SbhDIQjLVR-7" value="Tìm kiếm" style="ellipse;whiteSpace=wrap;html=1;fontSize=14;" parent="1" vertex="1">
          <mxGeometry x="566" y="580" width="90" height="50" as="geometry" />
        </mxCell>
        <mxCell id="3qdDtQ0339SbhDIQjLVR-8" value="Xem chi tiết" style="ellipse;whiteSpace=wrap;html=1;fontSize=14;" parent="1" vertex="1">
          <mxGeometry x="476" y="660" width="90" height="50" as="geometry" />
        </mxCell>
        <mxCell id="3qdDtQ0339SbhDIQjLVR-9" value="Xem danh sách" style="ellipse;whiteSpace=wrap;html=1;fontSize=14;" parent="1" vertex="1">
          <mxGeometry x="342" y="660" width="90" height="50" as="geometry" />
        </mxCell>
        <mxCell id="3qdDtQ0339SbhDIQjLVR-10" value="Extends" style="endArrow=block;endSize=6;endFill=1;html=1;rounded=0;dashed=1;fontSize=14;" parent="1" source="3qdDtQ0339SbhDIQjLVR-9" target="3qdDtQ0339SbhDIQjLVR-1" edge="1">
          <mxGeometry width="160" relative="1" as="geometry">
            <mxPoint x="392" y="560" as="sourcePoint" />
            <mxPoint x="552" y="560" as="targetPoint" />
          </mxGeometry>
        </mxCell>
        <mxCell id="3qdDtQ0339SbhDIQjLVR-11" value="Extends" style="endArrow=block;endSize=6;endFill=1;html=1;rounded=0;dashed=1;fontSize=14;" parent="1" source="3qdDtQ0339SbhDIQjLVR-8" target="3qdDtQ0339SbhDIQjLVR-1" edge="1">
          <mxGeometry width="160" relative="1" as="geometry">
            <mxPoint x="392" y="560" as="sourcePoint" />
            <mxPoint x="552" y="560" as="targetPoint" />
          </mxGeometry>
        </mxCell>
        <mxCell id="3qdDtQ0339SbhDIQjLVR-12" value="Extends" style="endArrow=block;endFill=1;html=1;rounded=0;dashed=1;fontSize=14;" parent="1" source="3qdDtQ0339SbhDIQjLVR-4" target="3qdDtQ0339SbhDIQjLVR-1" edge="1">
          <mxGeometry width="160" relative="1" as="geometry">
            <mxPoint x="392" y="560" as="sourcePoint" />
            <mxPoint x="552" y="560" as="targetPoint" />
          </mxGeometry>
        </mxCell>
        <mxCell id="3qdDtQ0339SbhDIQjLVR-13" value="Extends" style="endArrow=block;endSize=6;endFill=1;html=1;rounded=0;dashed=1;fontSize=14;" parent="1" source="3qdDtQ0339SbhDIQjLVR-5" target="3qdDtQ0339SbhDIQjLVR-1" edge="1">
          <mxGeometry width="160" relative="1" as="geometry">
            <mxPoint x="392" y="560" as="sourcePoint" />
            <mxPoint x="552" y="560" as="targetPoint" />
          </mxGeometry>
        </mxCell>
        <mxCell id="3qdDtQ0339SbhDIQjLVR-14" value="Extends" style="endArrow=block;endSize=6;endFill=1;html=1;rounded=0;dashed=1;fontSize=14;" parent="1" source="3qdDtQ0339SbhDIQjLVR-6" target="3qdDtQ0339SbhDIQjLVR-1" edge="1">
          <mxGeometry width="160" relative="1" as="geometry">
            <mxPoint x="392" y="560" as="sourcePoint" />
            <mxPoint x="552" y="560" as="targetPoint" />
          </mxGeometry>
        </mxCell>
        <mxCell id="3qdDtQ0339SbhDIQjLVR-15" value="Extends" style="endArrow=block;endSize=6;endFill=1;html=1;rounded=0;dashed=1;fontSize=14;" parent="1" source="3qdDtQ0339SbhDIQjLVR-7" target="3qdDtQ0339SbhDIQjLVR-1" edge="1">
          <mxGeometry width="160" relative="1" as="geometry">
            <mxPoint x="392" y="560" as="sourcePoint" />
            <mxPoint x="552" y="560" as="targetPoint" />
          </mxGeometry>
        </mxCell>
        <mxCell id="3qdDtQ0339SbhDIQjLVR-16" value="Đăng nhập" style="ellipse;whiteSpace=wrap;html=1;fontSize=14;" parent="1" vertex="1">
          <mxGeometry x="172" y="630" width="130" height="60" as="geometry" />
        </mxCell>
        <mxCell id="3qdDtQ0339SbhDIQjLVR-17" value="Include" style="endArrow=block;endSize=6;endFill=1;html=1;rounded=0;dashed=1;fontSize=14;" parent="1" source="3qdDtQ0339SbhDIQjLVR-1" target="3qdDtQ0339SbhDIQjLVR-16" edge="1">
          <mxGeometry width="160" relative="1" as="geometry">
            <mxPoint x="312" y="610" as="sourcePoint" />
            <mxPoint x="329" y="540" as="targetPoint" />
          </mxGeometry>
        </mxCell>
        <mxCell id="3qdDtQ0339SbhDIQjLVR-18" value="XShop" style="swimlane;whiteSpace=wrap;html=1;" parent="1" vertex="1">
          <mxGeometry x="160" y="360" width="520" height="400" as="geometry" />
        </mxCell>
      </root>
    </mxGraphModel>
  </diagram>
  <diagram id="Q7lPGnUJ5XCcoluYsXEd" name="Management Reviews Usecase">
    <mxGraphModel dx="1050" dy="581" grid="1" gridSize="10" guides="1" tooltips="1" connect="1" arrows="1" fold="1" page="1" pageScale="1" pageWidth="827" pageHeight="1169" math="0" shadow="0">
      <root>
        <mxCell id="0" />
        <mxCell id="1" parent="0" />
        <mxCell id="IG_HSF6wnknt8QQKwmOr-1" value="Quản lý Đánh giá" style="ellipse;whiteSpace=wrap;html=1;fontSize=14;" parent="1" vertex="1">
          <mxGeometry x="352" y="530" width="130" height="60" as="geometry" />
        </mxCell>
        <mxCell id="IG_HSF6wnknt8QQKwmOr-2" value="Admin" style="shape=umlActor;verticalLabelPosition=bottom;verticalAlign=top;html=1;outlineConnect=0;fillStyle=auto;strokeWidth=2;fontSize=14;" parent="1" vertex="1">
          <mxGeometry x="202" y="430" width="50" height="100" as="geometry" />
        </mxCell>
        <mxCell id="IG_HSF6wnknt8QQKwmOr-3" value="" style="endArrow=none;html=1;rounded=0;fontSize=14;" parent="1" source="IG_HSF6wnknt8QQKwmOr-1" target="IG_HSF6wnknt8QQKwmOr-2" edge="1">
          <mxGeometry width="50" height="50" relative="1" as="geometry">
            <mxPoint x="452" y="590" as="sourcePoint" />
            <mxPoint x="502" y="540" as="targetPoint" />
          </mxGeometry>
        </mxCell>
        <mxCell id="IG_HSF6wnknt8QQKwmOr-10" value="Extends" style="endArrow=block;endSize=6;endFill=1;html=1;rounded=0;dashed=1;fontSize=14;" parent="1" source="IG_HSF6wnknt8QQKwmOr-9" target="IG_HSF6wnknt8QQKwmOr-1" edge="1">
          <mxGeometry width="160" relative="1" as="geometry">
            <mxPoint x="392" y="560" as="sourcePoint" />
            <mxPoint x="552" y="560" as="targetPoint" />
          </mxGeometry>
        </mxCell>
        <mxCell id="IG_HSF6wnknt8QQKwmOr-11" value="Extends" style="endArrow=block;endSize=6;endFill=1;html=1;rounded=0;dashed=1;fontSize=14;" parent="1" source="IG_HSF6wnknt8QQKwmOr-8" target="IG_HSF6wnknt8QQKwmOr-1" edge="1">
          <mxGeometry width="160" relative="1" as="geometry">
            <mxPoint x="392" y="560" as="sourcePoint" />
            <mxPoint x="552" y="560" as="targetPoint" />
          </mxGeometry>
        </mxCell>
        <mxCell id="IG_HSF6wnknt8QQKwmOr-12" value="Extends" style="endArrow=block;endFill=1;html=1;rounded=0;dashed=1;fontSize=14;" parent="1" source="IG_HSF6wnknt8QQKwmOr-4" target="IG_HSF6wnknt8QQKwmOr-1" edge="1">
          <mxGeometry width="160" relative="1" as="geometry">
            <mxPoint x="392" y="560" as="sourcePoint" />
            <mxPoint x="552" y="560" as="targetPoint" />
          </mxGeometry>
        </mxCell>
        <mxCell id="IG_HSF6wnknt8QQKwmOr-14" value="Extends" style="endArrow=block;endSize=6;endFill=1;html=1;rounded=0;dashed=1;fontSize=14;" parent="1" source="IG_HSF6wnknt8QQKwmOr-6" target="IG_HSF6wnknt8QQKwmOr-1" edge="1">
          <mxGeometry width="160" relative="1" as="geometry">
            <mxPoint x="392" y="560" as="sourcePoint" />
            <mxPoint x="552" y="560" as="targetPoint" />
          </mxGeometry>
        </mxCell>
        <mxCell id="IG_HSF6wnknt8QQKwmOr-16" value="Đăng nhập" style="ellipse;whiteSpace=wrap;html=1;fontSize=14;" parent="1" vertex="1">
          <mxGeometry x="172" y="630" width="130" height="60" as="geometry" />
        </mxCell>
        <mxCell id="IG_HSF6wnknt8QQKwmOr-17" value="Include" style="endArrow=block;endSize=6;endFill=1;html=1;rounded=0;dashed=1;fontSize=14;" parent="1" source="IG_HSF6wnknt8QQKwmOr-1" target="IG_HSF6wnknt8QQKwmOr-16" edge="1">
          <mxGeometry width="160" relative="1" as="geometry">
            <mxPoint x="312" y="610" as="sourcePoint" />
            <mxPoint x="329" y="540" as="targetPoint" />
          </mxGeometry>
        </mxCell>
        <mxCell id="IG_HSF6wnknt8QQKwmOr-18" value="XShop" style="swimlane;whiteSpace=wrap;html=1;" parent="1" vertex="1">
          <mxGeometry x="160" y="360" width="520" height="400" as="geometry" />
        </mxCell>
        <mxCell id="IG_HSF6wnknt8QQKwmOr-6" value="Xóa" style="ellipse;whiteSpace=wrap;html=1;fontSize=14;" parent="IG_HSF6wnknt8QQKwmOr-18" vertex="1">
          <mxGeometry x="390" y="80" width="90" height="50" as="geometry" />
        </mxCell>
        <mxCell id="IG_HSF6wnknt8QQKwmOr-8" value="Xem chi tiết" style="ellipse;whiteSpace=wrap;html=1;fontSize=14;" parent="IG_HSF6wnknt8QQKwmOr-18" vertex="1">
          <mxGeometry x="390" y="280" width="90" height="50" as="geometry" />
        </mxCell>
        <mxCell id="IG_HSF6wnknt8QQKwmOr-9" value="Xem danh sách" style="ellipse;whiteSpace=wrap;html=1;fontSize=14;" parent="IG_HSF6wnknt8QQKwmOr-18" vertex="1">
          <mxGeometry x="209" y="300" width="90" height="50" as="geometry" />
        </mxCell>
        <mxCell id="IG_HSF6wnknt8QQKwmOr-4" value="Thêm" style="ellipse;whiteSpace=wrap;html=1;fontSize=14;" parent="IG_HSF6wnknt8QQKwmOr-18" vertex="1">
          <mxGeometry x="215" y="50" width="90" height="50" as="geometry" />
        </mxCell>
      </root>
    </mxGraphModel>
  </diagram>
  <diagram id="I8aDh_0y50SgUf43MyHG" name="User Usecase">
    <mxGraphModel dx="1050" dy="581" grid="1" gridSize="10" guides="1" tooltips="1" connect="1" arrows="1" fold="1" page="1" pageScale="1" pageWidth="827" pageHeight="1169" math="0" shadow="0">
      <root>
        <mxCell id="0" />
        <mxCell id="1" parent="0" />
        <mxCell id="_EOLxhdG2iQV4iMaMFe8-1" value="XShop" style="swimlane;whiteSpace=wrap;html=1;fontSize=14;" parent="1" vertex="1">
          <mxGeometry x="9" y="110" width="810" height="650" as="geometry" />
        </mxCell>
        <mxCell id="_EOLxhdG2iQV4iMaMFe8-10" value="Đăng nhập" style="ellipse;whiteSpace=wrap;html=1;fontSize=14;" parent="_EOLxhdG2iQV4iMaMFe8-1" vertex="1">
          <mxGeometry x="355" y="270" width="140" height="57.5" as="geometry" />
        </mxCell>
        <mxCell id="_EOLxhdG2iQV4iMaMFe8-12" value="Tim kiếm sản phẩm" style="ellipse;whiteSpace=wrap;html=1;fontSize=14;" parent="_EOLxhdG2iQV4iMaMFe8-1" vertex="1">
          <mxGeometry x="140" y="105" width="140" height="60" as="geometry" />
        </mxCell>
        <mxCell id="_EOLxhdG2iQV4iMaMFe8-13" value="Xem sản phẩm" style="ellipse;whiteSpace=wrap;html=1;fontSize=14;" parent="_EOLxhdG2iQV4iMaMFe8-1" vertex="1">
          <mxGeometry x="330" y="105" width="130" height="60" as="geometry" />
        </mxCell>
        <mxCell id="_EOLxhdG2iQV4iMaMFe8-14" value="Quản lý giỏ hàng" style="ellipse;whiteSpace=wrap;html=1;fontSize=14;" parent="_EOLxhdG2iQV4iMaMFe8-1" vertex="1">
          <mxGeometry x="360" y="440" width="130" height="60" as="geometry" />
        </mxCell>
        <mxCell id="_EOLxhdG2iQV4iMaMFe8-15" value="Đặt hàng và thanh toán" style="ellipse;whiteSpace=wrap;html=1;fontSize=14;" parent="_EOLxhdG2iQV4iMaMFe8-1" vertex="1">
          <mxGeometry x="460" y="165" width="140" height="60" as="geometry" />
        </mxCell>
        <mxCell id="_EOLxhdG2iQV4iMaMFe8-16" value="Đọc bài viết" style="ellipse;whiteSpace=wrap;html=1;fontSize=14;" parent="_EOLxhdG2iQV4iMaMFe8-1" vertex="1">
          <mxGeometry x="140" y="440" width="140" height="60" as="geometry" />
        </mxCell>
        <mxCell id="_EOLxhdG2iQV4iMaMFe8-17" value="Đánh giá sản phẩm" style="ellipse;whiteSpace=wrap;html=1;fontSize=14;" parent="_EOLxhdG2iQV4iMaMFe8-1" vertex="1">
          <mxGeometry x="460" y="330" width="140" height="60" as="geometry" />
        </mxCell>
        <mxCell id="_EOLxhdG2iQV4iMaMFe8-18" value="Admin" style="shape=umlActor;verticalLabelPosition=bottom;verticalAlign=top;html=1;outlineConnect=0;fillStyle=auto;strokeWidth=2;fontSize=14;" parent="_EOLxhdG2iQV4iMaMFe8-1" vertex="1">
          <mxGeometry x="100" y="248.75" width="50" height="100" as="geometry" />
        </mxCell>
        <mxCell id="_EOLxhdG2iQV4iMaMFe8-28" value="" style="endArrow=none;html=1;rounded=0;" parent="_EOLxhdG2iQV4iMaMFe8-1" source="_EOLxhdG2iQV4iMaMFe8-10" target="_EOLxhdG2iQV4iMaMFe8-18" edge="1">
          <mxGeometry width="50" height="50" relative="1" as="geometry">
            <mxPoint x="450" y="355" as="sourcePoint" />
            <mxPoint x="500" y="305" as="targetPoint" />
          </mxGeometry>
        </mxCell>
        <mxCell id="_EOLxhdG2iQV4iMaMFe8-29" value="" style="endArrow=none;html=1;rounded=0;" parent="_EOLxhdG2iQV4iMaMFe8-1" source="_EOLxhdG2iQV4iMaMFe8-18" target="_EOLxhdG2iQV4iMaMFe8-15" edge="1">
          <mxGeometry width="50" height="50" relative="1" as="geometry">
            <mxPoint x="450" y="355" as="sourcePoint" />
            <mxPoint x="500" y="305" as="targetPoint" />
          </mxGeometry>
        </mxCell>
        <mxCell id="_EOLxhdG2iQV4iMaMFe8-30" value="" style="endArrow=none;html=1;rounded=0;" parent="_EOLxhdG2iQV4iMaMFe8-1" source="_EOLxhdG2iQV4iMaMFe8-16" target="_EOLxhdG2iQV4iMaMFe8-18" edge="1">
          <mxGeometry width="50" height="50" relative="1" as="geometry">
            <mxPoint x="450" y="355" as="sourcePoint" />
            <mxPoint x="500" y="305" as="targetPoint" />
          </mxGeometry>
        </mxCell>
        <mxCell id="_EOLxhdG2iQV4iMaMFe8-31" value="" style="endArrow=none;html=1;rounded=0;" parent="_EOLxhdG2iQV4iMaMFe8-1" source="_EOLxhdG2iQV4iMaMFe8-12" target="_EOLxhdG2iQV4iMaMFe8-18" edge="1">
          <mxGeometry width="50" height="50" relative="1" as="geometry">
            <mxPoint x="450" y="355" as="sourcePoint" />
            <mxPoint x="500" y="305" as="targetPoint" />
          </mxGeometry>
        </mxCell>
        <mxCell id="_EOLxhdG2iQV4iMaMFe8-33" value="" style="endArrow=none;html=1;rounded=0;" parent="_EOLxhdG2iQV4iMaMFe8-1" source="_EOLxhdG2iQV4iMaMFe8-14" target="_EOLxhdG2iQV4iMaMFe8-18" edge="1">
          <mxGeometry width="50" height="50" relative="1" as="geometry">
            <mxPoint x="450" y="455" as="sourcePoint" />
            <mxPoint x="500" y="405" as="targetPoint" />
          </mxGeometry>
        </mxCell>
        <mxCell id="_EOLxhdG2iQV4iMaMFe8-34" value="" style="endArrow=none;html=1;rounded=0;" parent="_EOLxhdG2iQV4iMaMFe8-1" source="_EOLxhdG2iQV4iMaMFe8-13" target="_EOLxhdG2iQV4iMaMFe8-18" edge="1">
          <mxGeometry width="50" height="50" relative="1" as="geometry">
            <mxPoint x="450" y="355" as="sourcePoint" />
            <mxPoint x="500" y="305" as="targetPoint" />
          </mxGeometry>
        </mxCell>
        <mxCell id="imcs0VaLp-mSWBDx8Z_f-1" value="Include" style="endArrow=block;endSize=6;endFill=1;html=1;rounded=0;dashed=1;fontSize=14;" parent="_EOLxhdG2iQV4iMaMFe8-1" source="_EOLxhdG2iQV4iMaMFe8-14" target="_EOLxhdG2iQV4iMaMFe8-10" edge="1">
          <mxGeometry x="-0.5049" width="160" relative="1" as="geometry">
            <mxPoint x="423" y="545" as="sourcePoint" />
            <mxPoint x="440" y="475" as="targetPoint" />
            <mxPoint as="offset" />
          </mxGeometry>
        </mxCell>
        <mxCell id="imcs0VaLp-mSWBDx8Z_f-2" value="Include" style="endArrow=block;endSize=6;endFill=1;html=1;rounded=0;dashed=1;fontSize=14;" parent="_EOLxhdG2iQV4iMaMFe8-1" source="_EOLxhdG2iQV4iMaMFe8-15" target="_EOLxhdG2iQV4iMaMFe8-10" edge="1">
          <mxGeometry x="-0.5049" width="160" relative="1" as="geometry">
            <mxPoint x="427" y="495" as="sourcePoint" />
            <mxPoint x="438" y="374" as="targetPoint" />
            <mxPoint as="offset" />
          </mxGeometry>
        </mxCell>
        <mxCell id="imcs0VaLp-mSWBDx8Z_f-5" value="Extends" style="endArrow=block;endSize=6;endFill=1;html=1;rounded=0;dashed=1;fontSize=14;" parent="_EOLxhdG2iQV4iMaMFe8-1" source="_EOLxhdG2iQV4iMaMFe8-17" target="_EOLxhdG2iQV4iMaMFe8-15" edge="1">
          <mxGeometry x="-0.5049" width="160" relative="1" as="geometry">
            <mxPoint x="524" y="253" as="sourcePoint" />
            <mxPoint x="570" y="295" as="targetPoint" />
            <mxPoint as="offset" />
          </mxGeometry>
        </mxCell>
        <mxCell id="Ox-Ea6C0EP18PIU1OXK_-1" value="Thêm" style="ellipse;whiteSpace=wrap;html=1;fontSize=14;" parent="_EOLxhdG2iQV4iMaMFe8-1" vertex="1">
          <mxGeometry x="530" y="510" width="90" height="50" as="geometry" />
        </mxCell>
        <mxCell id="Ox-Ea6C0EP18PIU1OXK_-2" value="Thêm" style="ellipse;whiteSpace=wrap;html=1;fontSize=14;" parent="_EOLxhdG2iQV4iMaMFe8-1" vertex="1">
          <mxGeometry x="380" y="550" width="90" height="50" as="geometry" />
        </mxCell>
        <mxCell id="Ox-Ea6C0EP18PIU1OXK_-3" value="Thêm" style="ellipse;whiteSpace=wrap;html=1;fontSize=14;" parent="_EOLxhdG2iQV4iMaMFe8-1" vertex="1">
          <mxGeometry x="250" y="520" width="90" height="50" as="geometry" />
        </mxCell>
        <mxCell id="Ox-Ea6C0EP18PIU1OXK_-4" value="Thêm" style="ellipse;whiteSpace=wrap;html=1;fontSize=14;" parent="_EOLxhdG2iQV4iMaMFe8-1" vertex="1">
          <mxGeometry x="570" y="410" width="90" height="50" as="geometry" />
        </mxCell>
        <mxCell id="Ox-Ea6C0EP18PIU1OXK_-5" value="Extends" style="endArrow=block;endSize=6;endFill=1;html=1;rounded=0;dashed=1;fontSize=14;" parent="_EOLxhdG2iQV4iMaMFe8-1" source="Ox-Ea6C0EP18PIU1OXK_-4" target="_EOLxhdG2iQV4iMaMFe8-14" edge="1">
          <mxGeometry x="-0.0308" y="-1" width="160" relative="1" as="geometry">
            <mxPoint x="540" y="340" as="sourcePoint" />
            <mxPoint x="540" y="235" as="targetPoint" />
            <mxPoint as="offset" />
          </mxGeometry>
        </mxCell>
        <mxCell id="Ox-Ea6C0EP18PIU1OXK_-6" value="Extends" style="endArrow=block;endSize=6;endFill=1;html=1;rounded=0;dashed=1;fontSize=14;" parent="_EOLxhdG2iQV4iMaMFe8-1" source="Ox-Ea6C0EP18PIU1OXK_-1" target="_EOLxhdG2iQV4iMaMFe8-14" edge="1">
          <mxGeometry x="-0.0467" y="-6" width="160" relative="1" as="geometry">
            <mxPoint x="550" y="350" as="sourcePoint" />
            <mxPoint x="550" y="245" as="targetPoint" />
            <mxPoint as="offset" />
          </mxGeometry>
        </mxCell>
        <mxCell id="Ox-Ea6C0EP18PIU1OXK_-7" value="Extends" style="endArrow=block;endSize=6;endFill=1;html=1;rounded=0;dashed=1;fontSize=14;" parent="_EOLxhdG2iQV4iMaMFe8-1" source="Ox-Ea6C0EP18PIU1OXK_-2" target="_EOLxhdG2iQV4iMaMFe8-14" edge="1">
          <mxGeometry x="-0.5049" width="160" relative="1" as="geometry">
            <mxPoint x="560" y="360" as="sourcePoint" />
            <mxPoint x="560" y="255" as="targetPoint" />
            <mxPoint as="offset" />
          </mxGeometry>
        </mxCell>
        <mxCell id="Ox-Ea6C0EP18PIU1OXK_-8" value="Extends" style="endArrow=block;endSize=6;endFill=1;html=1;rounded=0;dashed=1;fontSize=14;" parent="_EOLxhdG2iQV4iMaMFe8-1" source="Ox-Ea6C0EP18PIU1OXK_-3" target="_EOLxhdG2iQV4iMaMFe8-14" edge="1">
          <mxGeometry x="-0.1758" y="4" width="160" relative="1" as="geometry">
            <mxPoint x="310" y="500" as="sourcePoint" />
            <mxPoint x="570" y="265" as="targetPoint" />
            <mxPoint y="1" as="offset" />
          </mxGeometry>
        </mxCell>
      </root>
    </mxGraphModel>
  </diagram>
</mxfile>
